<svg version="1.2" xmlns="http://www.w3.org/2000/svg" viewBox="0 0 231 178" width="231" height="178"><style>.a{fill:#1e1e1e}</style><path fill-rule="evenodd" class="a" d="m229.1 126.1c0 35.1-29.4 45.6-65.7 45.6h-67.3c1.7-15.6 2.3-24.9 2.3-44v-76.4c0-19.2-0.6-28.4-2.3-44h64c29.6 0 57.3 5.3 57.3 37.2 0 19.7-10.9 30.8-35.5 35.1 27.3 4.8 47.2 17.5 47.2 46.5zm-96.2-48.7h15c25.3 0 34.4-11.5 34.4-32.9 0-24.1-17.3-32.9-35.8-32.9h-13.6zm58.8 49.1c0-37-23.8-44.8-41.7-44.8h-17.1v85.7h15.7c23.2 0 43.1-10.3 43.1-40.9z"/><path class="a" d="m2.2 124.9c18.1 38.2 43 51.7 75.9 51.7 26.9 0 49.9-13.7 49.9-42.9 0-27.8-19.3-41.1-58.1-67-29.7-19.5-38.7-25.9-38.7-38.9 0-11.1 9.7-19.5 25.9-19.5 26.7 0 37.2 22.8 43.2 45.4l24.2-10c-18.5-28.2-39.2-39.7-65.3-39.7-26.1 0-47.3 12.3-47.3 36.4 0 22.2 13.6 33.5 47.1 56.3 33 23.2 49.9 34.1 49.9 49.9 0 16.3-11.1 25.7-28.4 25.7-27.5 0-47.2-26.1-53.8-61z"/></svg>